<svg xmlns="http://www.w3.org/2000/svg" viewBox="0 0 512 512" role="img" aria-label="Superset icon 512">
  <defs>
    <linearGradient id="g" x1="0" x2="1" y1="0" y2="1">
      <stop offset="0" stop-color="#f97316" />
      <stop offset="1" stop-color="#fb7185" />
    </linearGradient>
  </defs>
  <rect width="512" height="512" rx="108" fill="#08111f" />
  <path d="M98 164c0-46 36-82 82-82h154v62H187c-15 0-27 11-27 25s12 24 27 24h117c49 0 88 39 88 88s-39 88-88 88H178v-62h139c14 0 25-11 25-26 0-14-11-25-25-25H201c-60 0-103-41-103-92z" fill="url(#g)" />
</svg>