<svg xmlns="http://www.w3.org/2000/svg" viewBox="0 0 192 192" role="img" aria-label="Superset icon 192">
  <defs>
    <linearGradient id="g" x1="0" x2="1" y1="0" y2="1">
      <stop offset="0" stop-color="#f97316" />
      <stop offset="1" stop-color="#fb7185" />
    </linearGradient>
  </defs>
  <rect width="192" height="192" rx="40" fill="#08111f" />
  <path d="M36 62c0-18 14-32 32-32h56v24H70c-5 0-10 4-10 9s5 9 10 9h42c19 0 34 15 34 34s-15 34-34 34H68v-24h50c6 0 10-4 10-10 0-5-4-10-10-10H78c-24 0-42-17-42-38z" fill="url(#g)" />
</svg>